# xmcd
#
# Track frame offsets: 
#        150
#        20466
#        39105
#        51355
#        68272
#        82525
#        96283
#        112187
#        122509
#        146615
#        156901
#        173895
#        192532
#        204302
#        214872
#        236475
#        254919
#
# Disc length: 3588 seconds
#
# Revision: 1
# Processed by: cddbd v1.5.2PL0 Copyright (c) Steve Scherf et al.
# Submitted via: ExactAudioCopy v0.99pb5
#
DISCID=e90e0211
DTITLE=Various Artist - De Grootste Kampvuurklassiekers - Volume 1 [2
DTITLE=CD1]
DYEAR=1900
DGENRE=Pop
TTITLE0=The Animals - The House Of The Rising Sun
TTITLE1=The Hollies - Blowin' In The Wind
TTITLE2=Louis Neefs - Laat Ons Een Bloem
TTITLE3=The Radios - She Goes Nana
TTITLE4=John Denver - Take Me Home Country Roads
TTITLE5=Kingston Trio - Tom Dooley
TTITLE6=Monty Python - Always Look On The Bright Side Of Life
TTITLE7=The Seekers - Georgy Girl
TTITLE8=Bots - Zeven Dagen Lang
TTITLE9=The Byrds - Mr. Tambourine Man
TTITLE10=Guus Meeuwis and Vagant - Het Is Een Nacht
TTITLE11=Don McLean - American Pie
TTITLE12=Ferre Grignard - Drunken Sailor
TTITLE13=Laurie London - He's Got The Whole World
TTITLE14=The Fifth Dimension - Aquarius
TTITLE15=The Kinks - Lola
TTITLE16=Gorky - Lieve Kleine Piranha
EXTD=
EXTT0=
EXTT1=
EXTT2=
EXTT3=
EXTT4=
EXTT5=
EXTT6=
EXTT7=
EXTT8=
EXTT9=
EXTT10=
EXTT11=
EXTT12=
EXTT13=
EXTT14=
EXTT15=
EXTT16=
PLAYORDER=
